<svg xmlns="http://www.w3.org/2000/svg" xml:space="preserve" width="2048" height="2048" style="shape-rendering:geometricPrecision;text-rendering:geometricPrecision;image-rendering:optimizeQuality;fill-rule:evenodd;clip-rule:evenodd"><defs><clipPath id="id0"><path d="M1024-.001c565.539 0 1024 458.462 1024 1024 0 565.539-458.462 1024-1024 1024-565.539 0-1024-458.462-1024-1024 0-565.54 458.462-1024 1024-1024z"/></clipPath><style>.fil1{fill:#303f9f}</style></defs><g id="Layer_x0020_1"><path d="M1024-.001c565.539 0 1024 458.462 1024 1024 0 565.539-458.462 1024-1024 1024-565.539 0-1024-458.462-1024-1024 0-565.54 458.462-1024 1024-1024z" style="fill:#5c6bc0"/><g style="clip-path:url(#id0)"><g id="_300484016"><path id="_3683288881" class="fil1" d="M1584 983.545 2719.88 2119.43l-32.79 38.32-1135.88-1135.88z"/><path id="_368328720" class="fil1" d="m1551.21 1021.87 1135.88 1135.88-160.59-138.19L1390.62 883.683z"/><path id="_368328288" class="fil1" d="M1390.62 883.683 2526.5 2019.56v485.65L1390.62 1369.32z"/><path id="_368329488" class="fil1" d="m1567.61 1369.32 1135.88 1135.89v25.28L1567.61 1394.61z"/><path id="_368329248" class="fil1" d="m1567.61 1394.61 1135.88 1135.88v126.42L1567.61 1521.03z"/><path id="_368329512" class="fil1" d="m1567.61 1521.03 1135.88 1135.88v25.28L1567.61 1546.31z"/><path id="_368328984" class="fil1" d="m1567.61 1546.31 1135.88 1135.88h-25.29L1542.32 1546.31z"/><path id="_368329560" class="fil1" d="M657.382 883.683 1793.26 2019.56l-160.59 138.19L496.789 1021.87z"/><path id="_368329440" class="fil1" d="m505.68 1546.31 1135.88 1135.88h-25.28L480.395 1546.31z"/><path id="_368329080" class="fil1" d="M1542.32 1546.31 2678.2 2682.19H1641.56L505.68 1546.31z"/><path id="_300483752" class="fil1" d="M1040.39 515.794 1584 983.545l-32.79 38.325-160.59-138.187v485.637H1567.61v176.99H480.395V1369.32h176.987V883.683L496.789 1021.87l-32.79-38.325 543.611-467.751 16.39-14.106z"/></g></g><path d="M1024-.001c565.539 0 1024 458.462 1024 1024 0 565.539-458.462 1024-1024 1024-565.539 0-1024-458.462-1024-1024 0-565.54 458.462-1024 1024-1024z" style="fill:none"/><path d="m1040.39 515.794 543.606 467.751-32.79 38.322-160.593-138.184v510.925H657.377V883.683l-160.593 138.184-32.79-38.322L1007.6 515.794l16.395-14.106 16.395 14.106zm-16.395 398.42c41.89 0 79.817 16.98 107.27 44.434 27.453 27.453 44.433 65.38 44.433 107.27 0 41.887-16.98 79.816-44.434 107.268-27.452 27.454-65.38 44.435-107.269 44.435-41.889 0-79.816-16.981-107.269-44.435-27.453-27.452-44.434-65.38-44.434-107.269 0-41.889 16.98-79.816 44.434-107.269 27.453-27.453 65.38-44.434 107.27-44.434z" style="fill:#26c6da"/><path style="fill:#0097a7;fill-rule:nonzero" d="M505.68 1369.32h1061.93v176.99H480.395V1369.32z"/></g></svg>